<svg width="199" height="107" viewBox="0 0 199 107" fill="none" xmlns="http://www.w3.org/2000/svg">
<path d="M15.5814 101.576C10.5814 107.576 3.08136 104.576 2.08136 101.576C7.08136 95.5759 14.5814 98.576 15.5814 101.576ZM15.5814 101.576L61.0814 101.576M15.5814 101.576L9.08136 101.576" stroke="#1E0000"/>
<path d="M181.581 101.04C186.581 107.04 194.081 104.04 195.081 101.04C190.081 95.04 182.581 98.04 181.581 101.04ZM181.581 101.04L136.081 101.04M181.581 101.04L188.081 101.04" stroke="#1E0000"/>
<path d="M132.581 106.076H126.081V94.5759" stroke="#1E0000"/>
<path d="M74.5814 95.0759V101.076M74.5814 106.576V101.076M74.5814 101.076H66.5814V95.5759V95.0759V106.576M97.0814 95.0759H101.581M106.081 95.0759H101.581M101.581 95.0759V106.576M119.581 106.076H112.581V100.576M119.581 95.0759H112.581V100.576M112.581 100.576H117.581H118.581" stroke="#1E0000"/>
<path d="M69.0814 55.0759V64.5759" stroke="#1E0000"/>
<path d="M48.0814 62.0759C47.0814 64.5759 43.5814 64.5759 42.0814 63.0759C41.0814 62.0759 40.5813 60.5759 41.0813 58.5759C41.5813 57.0759 42.5814 55.5759 45.0814 55.5759C47.5813 55.5759 48.5814 57.5759 48.5814 59.5759H41.0813" stroke="#1E0000"/>
<path d="M37.5814 59.5759C37.5814 61.0759 36.7814 64.0759 33.5814 64.0759C30.5814 64.0759 29.5814 61.3486 29.5814 60.0759C29.5813 58.5759 30.5814 55.5759 33.5814 55.5759C36.5814 55.5759 37.748 58.2425 37.5814 59.5759ZM37.5814 59.5759V50.5759M37.5814 59.5759V64.5759" stroke="#1E0000"/>
<path d="M61.5814 80.5759C64.0814 80.5759 63.748 78.4092 63.0814 77.5759C62.8453 77.2612 62.3418 76.887 61.5814 76.748C60.3814 77.2857 60.0814 78.0759 60.0814 78.5759C60.0814 79.0759 60.0814 80.5759 61.5814 80.5759Z" fill="#2A7A00"/>
<path d="M103.081 78.0759C102.748 80.5759 102.881 85.9759 106.081 87.5759C108.519 88.3072 110.081 88.0759 112.081 85.5759C110.496 87.2563 108.724 86.7282 107.581 86.5759C104.581 86.0759 105.081 77.0759 105.081 76.0759C105.581 69.5759 108.329 58.4092 110.081 54.5759C109.773 55.1495 108.776 57.6587 108.581 58.0759C107.381 59.6759 103.681 73.5759 103.081 78.0759Z" fill="#2A7A00"/>
<path d="M92.5813 78.0759C92.7124 77.7442 92.8455 77.4153 92.9803 77.0891C92.6918 71.9148 91.5288 66.2026 90.5814 63.0759C89.0814 58.5759 88.7325 57.4092 87.5814 54.5759C86.1594 51.0759 86.0814 48.5759 86.5813 45.0759C85.248 46.2426 83.5814 49.5759 85.0814 54.0759C89.755 64.3581 91.3706 72.4559 91.9699 76.7359C91.9862 76.8521 92.0017 76.9654 92.0165 77.0759C92.0398 77.2496 92.0614 77.4163 92.0813 77.5759C92.1567 77.978 92.222 78.3662 92.2779 78.7408C92.3823 78.5143 92.4839 78.2923 92.5813 78.0759Z" fill="#2A7A00"/>
<path d="M113.581 83.0759C113.256 83.8571 112.937 84.6693 112.081 85.5759M85.0814 54.0759C83.5814 49.5759 85.248 46.2426 86.5813 45.0759C86.0814 48.5759 86.1594 51.0759 87.5814 54.5759C88.7325 57.4092 89.0814 58.5759 90.5814 63.0759C91.5288 66.2026 92.6918 71.9148 92.9803 77.0891M85.0814 54.0759C89.755 64.3581 91.3706 72.4559 91.9699 76.7359M85.0814 54.0759C85.0814 59.2426 83.2814 71.6759 76.0814 80.0759C71.5814 85.0759 66.5814 87.5759 62.5814 87.5759C59.3814 87.5759 57.248 84.9092 56.5814 83.5759C55.9147 82.2426 55.2814 79.1759 58.0814 77.5759C59.5595 76.7313 60.731 76.5926 61.5814 76.748M92.0165 77.0759C92.0398 77.2496 92.0614 77.4163 92.0813 77.5759C92.1567 77.978 92.222 78.3662 92.2779 78.7408M92.0165 77.0759C92.0013 76.9787 91.9858 76.8649 91.9699 76.7359M92.0165 77.0759C92.0017 76.9654 91.9862 76.8521 91.9699 76.7359M61.5814 76.748C62.3418 76.887 62.8453 77.2612 63.0814 77.5759C63.748 78.4092 64.0814 80.5759 61.5814 80.5759C60.0814 80.5759 60.0814 79.0759 60.0814 78.5759C60.0814 78.0759 60.3814 77.2857 61.5814 76.748ZM110.081 54.5759C109.773 55.1495 108.776 57.6587 108.581 58.0759C107.381 59.6759 103.681 73.5759 103.081 78.0759C102.748 80.5759 102.881 85.9759 106.081 87.5759C108.519 88.3072 110.081 88.0759 112.081 85.5759M110.081 54.5759C111.621 51.7124 113.749 49.2418 117.081 46.5759C117.574 46.5759 101.586 56.2697 92.9803 77.0891M110.081 54.5759C108.329 58.4092 105.581 69.5759 105.081 76.0759C105.081 77.0759 104.581 86.0759 107.581 86.5759C108.724 86.7282 110.496 87.2563 112.081 85.5759M91.6493 86.5759C92.9145 84.6341 93.1993 81.0165 92.9803 77.0891M92.9803 77.0891C92.8455 77.4153 92.7124 77.7442 92.5813 78.0759C92.4839 78.2923 92.3823 78.5143 92.2779 78.7408M92.2779 78.7408C93.3338 85.8196 91.031 88.0508 90.0813 87.5759C88.6787 86.1733 90.7735 82.0018 92.2779 78.7408Z" stroke="#2A7A00"/>
<path d="M121.581 25.5759L115.581 41.0759C115.415 41.5759 115.081 42.5759 116.581 42.5759C118.581 42.5759 118.581 42.5759 120.081 38.0759C120.855 36.1962 122.143 32.9815 123.506 30.2129C124.364 26.9538 125.581 20.5759 122.081 21.0759C121.581 21.0759 120.728 21.3756 120.242 21.6394C121.459 20.9786 122.773 21.7019 121.581 25.5759Z" fill="#2A7A00"/>
<path d="M131.081 21.7161C132.113 21.3263 133.026 21.4652 133.581 22.5759C134.581 24.5759 129.748 33.4092 128.581 36.5759C127.915 38.4092 127.381 41.8759 130.581 43.0759C131.458 43.4048 134.258 42.7723 135.945 39.2397C134.263 42.5235 130.511 44.8722 130.081 40.5759C130.081 37.5759 131.581 35.5759 133.081 32.5759C134.256 30.2267 134.831 28.5759 135.581 25.5759C136.081 22.0759 135.081 20.0759 131.081 21.7161Z" fill="#2A7A00"/>
<path d="M117.581 24.0759C118.187 23.0659 119.283 22.0559 120.242 21.6394M133.581 22.5759C131.981 19.3759 127.415 24.2426 125.581 26.5759C124.908 27.5183 124.197 28.8082 123.506 30.2129M133.581 22.5759C134.581 24.5759 129.748 33.4092 128.581 36.5759C127.915 38.4092 127.381 41.8759 130.581 43.0759C131.458 43.4048 134.258 42.7723 135.945 39.2397M133.581 22.5759C133.026 21.4652 132.113 21.3263 131.081 21.7161C135.081 20.0759 136.081 22.0759 135.581 25.5759C134.831 28.5759 134.256 30.2267 133.081 32.5759C131.581 35.5759 130.081 37.5759 130.081 40.5759C130.511 44.8722 134.263 42.5235 135.945 39.2397M123.506 30.2129C122.143 32.9815 120.855 36.1962 120.081 38.0759C118.581 42.5759 118.581 42.5759 116.581 42.5759C115.081 42.5759 115.415 41.5759 115.581 41.0759L121.581 25.5759C122.773 21.7019 121.459 20.9786 120.242 21.6394M123.506 30.2129C124.364 26.9538 125.581 20.5759 122.081 21.0759C121.581 21.0759 120.728 21.3756 120.242 21.6394M135.945 39.2397C136.221 38.7018 136.441 38.1388 136.581 37.5759C136.397 38.1912 136.182 38.744 135.945 39.2397Z" stroke="#2A7A00"/>
<path d="M68.7195 21.0608C69.4862 21.0803 69.7 22.3469 68.5814 26.0759C66.1814 34.0759 64.248 39.0759 63.5814 40.5759C63.4147 41.0759 62.7814 42.1759 63.5814 42.5759H65.5814C66.7572 41.4295 67.3887 38.5575 67.5813 38.0759C68.5813 35.5759 70.0813 29.5759 72.5813 26.5759C74.248 24.5759 75.0813 23.5759 77.5813 22.0759C80.5813 20.5759 83.0813 23.5759 82.0813 27.5759C82.5813 26.2426 82.9813 23.1759 80.5813 21.5759C80.0813 21.0759 76.0813 20.5759 72.0813 26.0759C72.4098 24.105 71.7996 20.7746 68.7195 21.0608Z" fill="#2A7A00"/>
<path d="M81.1687 29.2442C80.6687 26.7442 78.5813 26.0759 77.0813 27.0759C75.5813 28.5759 77.0813 30.0759 77.5813 30.0759C77.5813 30.0759 79.758 30.6978 81.1687 29.2442Z" fill="#2A7A00"/>
<path d="M65.0814 24.0759C66.2381 22.6522 67.8414 21.0385 68.7195 21.0608M63.5814 42.5759C62.7814 42.1759 63.4147 41.0759 63.5814 40.5759C64.248 39.0759 66.1814 34.0759 68.5814 26.0759C69.7 22.3469 69.4862 21.0803 68.7195 21.0608M63.5814 42.5759C64.0393 42.7285 65.0646 43.0797 65.5814 42.5759M63.5814 42.5759H65.5814M82.0813 27.5759C83.0813 23.5759 80.5813 20.5759 77.5813 22.0759C75.0813 23.5759 74.248 24.5759 72.5813 26.5759C70.0813 29.5759 68.5813 35.5759 67.5813 38.0759C67.3887 38.5575 66.7572 41.4295 65.5814 42.5759M82.0813 27.5759C81.0813 31.0759 77.5813 30.0759 77.5813 30.0759M82.0813 27.5759C82.5813 26.2426 82.9813 23.1759 80.5813 21.5759C80.0813 21.0759 76.0813 20.5759 72.0813 26.0759C72.4098 24.105 71.7996 20.7746 68.7195 21.0608M77.5813 30.0759C77.0813 30.0759 75.5813 28.5759 77.0813 27.0759C78.5813 26.0759 80.6687 26.7442 81.1687 29.2442C79.758 30.6978 77.5813 30.0759 77.5813 30.0759ZM68.5813 21.0759C68.6279 21.0701 68.674 21.0651 68.7195 21.0608" stroke="#2A7A00"/>
<path d="M139.249 64.5926C139.965 64.6114 140.165 65.8318 139.12 69.4249C136.879 77.1333 135.073 81.9511 134.451 83.3965C134.295 83.8783 133.704 84.9382 134.451 85.3236H136.318C137.417 84.219 138.006 81.4517 138.186 80.9876C139.12 78.5787 140.521 72.7973 142.855 69.9067C144.412 67.9795 145.19 67.016 147.525 65.5706C150.326 64.1253 152.661 67.016 151.727 70.8702C152.194 69.5855 152.568 66.6306 150.326 65.0889C149.859 64.6071 146.124 64.1253 142.389 69.4249C142.695 67.5258 142.125 64.3168 139.249 64.5926Z" fill="#2A7A00"/>
<path d="M150.875 72.4777C150.408 70.0688 148.459 69.4249 147.058 70.3884C145.657 71.8338 147.058 73.2791 147.525 73.2791C147.525 73.2791 149.557 73.8784 150.875 72.4777Z" fill="#2A7A00"/>
<path d="M135.852 67.4977C136.932 66.1259 138.429 64.571 139.249 64.5926M134.451 85.3236C133.704 84.9382 134.295 83.8783 134.451 83.3965C135.073 81.9511 136.879 77.1333 139.12 69.4249C140.165 65.8318 139.965 64.6114 139.249 64.5926M134.451 85.3236C134.878 85.4707 135.836 85.809 136.318 85.3236M134.451 85.3236H136.318M151.727 70.8702C152.661 67.016 150.326 64.1253 147.525 65.5706C145.19 67.016 144.412 67.9795 142.855 69.9067C140.521 72.7973 139.12 78.5787 138.186 80.9876C138.006 81.4517 137.417 84.219 136.318 85.3236M151.727 70.8702C150.793 74.2427 147.525 73.2791 147.525 73.2791M151.727 70.8702C152.194 69.5855 152.568 66.6306 150.326 65.0889C149.859 64.6071 146.124 64.1253 142.389 69.4249C142.695 67.5258 142.125 64.3168 139.249 64.5926M147.525 73.2791C147.058 73.2791 145.657 71.8338 147.058 70.3884C148.459 69.4249 150.408 70.0688 150.875 72.4777C149.557 73.8784 147.525 73.2791 147.525 73.2791ZM139.12 64.6071C139.164 64.6015 139.207 64.5966 139.249 64.5926" stroke="#2A7A00"/>
<path d="M96.5814 21.8897C95.6358 21.6569 94.004 19.7769 91.0813 21.0759C85.4378 23.8977 82.5813 28.5759 82.0813 34.0759C81.9147 37.0759 82.3813 42.9758 85.5813 42.5758C86.0814 42.5758 88.5814 42.5758 93.5814 37.5758C92.303 38.5758 84.5814 47.5759 84.0814 37.5759C84.0814 34.0759 84.5814 30.0759 87.0814 26.5759C88.3144 24.8497 93.0814 20.0759 96.5814 21.8897Z" fill="#2A7A00"/>
<path d="M93.5814 37.5758C93.0814 38.9092 92.6814 41.8758 95.0814 43.0758C96.5814 43.5758 98.0814 43.0758 101.081 38.5758C98.5814 40.7425 94.0814 46.0758 95.5814 39.0758L101.081 21.8086C101.081 21.8086 103.619 14.9041 105.581 9.57588C107.581 4.57588 109.081 3.07586 107.581 3.07587C106.081 3.07588 105.081 2.5759 104.081 5.07584C102.692 8.57585 99.5472 16.9759 98.0813 22.5759C97.9216 23.1862 97.7583 23.7851 97.593 24.3716C97.5891 24.3853 97.5852 24.3991 97.5814 24.4129C96.7885 27.2221 95.9512 29.7459 95.245 31.8746C94.4125 34.3837 93.7622 36.3439 93.5814 37.5758Z" fill="#2A7A00"/>
<path d="M97.5814 24.4129C96.9147 21.7462 95.5813 19.0758 91.0813 21.0759M97.5814 24.4129C97.5852 24.3991 97.5891 24.3853 97.593 24.3716M97.5814 24.4129C96.7885 27.2221 95.9512 29.7459 95.245 31.8746M91.0813 21.0759C85.4378 23.8977 82.5813 28.5759 82.0813 34.0759C81.9147 37.0759 82.3813 42.9758 85.5813 42.5758C86.0814 42.5758 88.5814 42.5758 93.5814 37.5758M91.0813 21.0759C94.004 19.7769 95.6358 21.6569 96.5814 21.8897C93.0814 20.0759 88.3144 24.8497 87.0814 26.5759C84.5814 30.0759 84.0814 34.0759 84.0814 37.5759C84.5814 47.5759 92.303 38.5758 93.5814 37.5758M93.5814 37.5758C93.0814 38.9092 92.6814 41.8758 95.0814 43.0758C96.5814 43.5758 98.0814 43.0758 101.081 38.5758C98.5814 40.7425 94.0814 46.0758 95.5814 39.0758L101.081 21.8086C101.081 21.8086 103.619 14.9041 105.581 9.57588C107.581 4.57588 109.081 3.07586 107.581 3.07587C106.081 3.07588 105.081 2.5759 104.081 5.07584C102.692 8.57585 99.5472 16.9759 98.0813 22.5759C97.9216 23.1862 97.7583 23.7851 97.593 24.3716M93.5814 37.5758C93.7622 36.3439 94.4125 34.3837 95.245 31.8746M97.593 24.3716C96.7967 27.1974 95.9546 29.7355 95.245 31.8746" stroke="#2A7A00"/>
<path d="M58.0814 23.5759C57.748 21.5759 55.2813 18.3759 50.0813 21.5759C44.8813 24.7759 42.9147 30.2426 42.5813 32.5759C41.748 36.0759 41.1813 43.0759 45.5813 43.0759C46.1727 43.0759 46.8449 43.031 47.7181 42.7009C46.4695 43.0171 45.4233 42.4698 45.0814 40.0759C44.9304 39.019 45.0814 37.0759 45.5813 34.5759C45.9147 32.9092 46.8814 29.0759 48.0814 27.0759C49.5814 24.5759 51.0814 22.5759 52.5814 21.5759C54.0814 20.5759 56.5814 20.0759 58.0814 23.5759Z" fill="#2A7A00"/>
<path d="M56.0814 40.0759C55.8314 37.0759 57.4814 28.8759 61.0814 24.0759C61.748 23.0759 62.6814 21.0759 61.0814 21.0759C60.5814 21.0759 59.5814 21.5759 58.5814 23.0759L58.0331 23.6728C56.5283 26.7036 54.076 32.6291 53.5814 37.5759C53.5557 37.8328 53.5409 38.078 53.5362 38.3121C53.5642 38.2956 53.5862 38.287 53.6019 38.287L53.5354 38.3533C53.4833 41.7142 55.4944 42.7653 56.5814 43.0759C56.8831 43.0759 57.201 43.0395 57.5294 42.952C56.8167 42.9453 56.256 42.1711 56.0814 40.0759Z" fill="#2A7A00"/>
<path d="M58.0814 23.5759C57.748 21.5759 55.2813 18.3759 50.0813 21.5759C44.8813 24.7759 42.9147 30.2426 42.5813 32.5759C41.748 36.0759 41.1813 43.0759 45.5813 43.0759C46.1727 43.0759 46.8449 43.031 47.7181 42.7009M58.0814 23.5759C56.5814 20.0759 54.0814 20.5759 52.5814 21.5759C51.0814 22.5759 49.5814 24.5759 48.0814 27.0759C46.8814 29.0759 45.9147 32.9092 45.5813 34.5759C45.0814 37.0759 44.9304 39.019 45.0814 40.0759C45.4233 42.4698 46.4695 43.0171 47.7181 42.7009M58.0814 23.5759C58.0654 23.6078 58.0493 23.6401 58.0331 23.6728M53.6019 38.287C53.5797 38.3092 53.5575 38.3313 53.5354 38.3533M53.6019 38.287C53.5862 38.287 53.5642 38.2956 53.5362 38.3121M53.6019 38.287L53.5354 38.3533M58.0331 23.6728C56.5283 26.7036 54.076 32.6291 53.5814 37.5759C53.5557 37.8328 53.5409 38.078 53.5362 38.3121M58.0331 23.6728L58.5814 23.0759C59.5814 21.5759 60.5814 21.0759 61.0814 21.0759C62.6814 21.0759 61.748 23.0759 61.0814 24.0759C57.4814 28.8759 55.8314 37.0759 56.0814 40.0759C56.256 42.1711 56.8167 42.9453 57.5294 42.952M53.5354 38.3533C53.4833 41.7142 55.4944 42.7653 56.5814 43.0759C56.8831 43.0759 57.201 43.0395 57.5294 42.952M53.5354 38.3533C53.5356 38.3396 53.5359 38.3259 53.5362 38.3121M53.5354 38.3533C50.8463 41.0322 49.0489 42.1978 47.7181 42.7009M57.5294 42.952C58.8577 42.9644 60.7136 40.3113 61.5814 38.5759C60.3032 41.4517 58.8336 42.6046 57.5294 42.952ZM53.5362 38.3121C52.9748 38.6417 50.0064 42.1214 47.7181 42.7009" stroke="#2A7A00"/>
<path d="M129.579 67.6606C129.279 65.8231 127.054 62.8832 122.365 65.8231C117.676 68.7631 115.903 73.7855 115.602 75.9292C114.851 79.1448 114.34 85.5759 118.307 85.5759C118.841 85.5759 119.447 85.5347 120.234 85.2314C119.108 85.5219 118.165 85.0191 117.856 82.8197C117.72 81.8487 117.856 80.0635 118.307 77.7667C118.608 76.2354 119.48 72.7136 120.562 70.8762C121.914 68.5793 123.267 66.7419 124.62 65.8231C125.972 64.9044 128.227 64.445 129.579 67.6606Z" fill="#2A7A00"/>
<path d="M127.776 82.8197C127.55 80.0635 129.038 72.5299 132.285 68.12C132.886 67.2012 133.728 65.3638 132.285 65.3638C131.834 65.3638 130.932 65.8231 130.03 67.2012L129.536 67.7496C128.179 70.5341 125.968 75.9781 125.521 80.5229C125.498 80.7588 125.485 80.9841 125.481 81.1992C125.506 81.1841 125.526 81.1762 125.54 81.1762L125.48 81.2371C125.433 84.3249 127.247 85.2906 128.227 85.5759C128.499 85.5759 128.786 85.5424 129.082 85.4621C128.439 85.4559 127.933 84.7447 127.776 82.8197Z" fill="#2A7A00"/>
<path d="M129.579 67.6606C129.279 65.8231 127.054 62.8832 122.365 65.8231C117.676 68.7631 115.903 73.7855 115.602 75.9292C114.851 79.1448 114.34 85.5759 118.307 85.5759C118.841 85.5759 119.447 85.5346 120.234 85.2314M129.579 67.6606C128.227 64.445 125.972 64.9044 124.62 65.8231C123.267 66.7419 121.914 68.5793 120.562 70.8762C119.48 72.7136 118.608 76.2354 118.307 77.7667C117.856 80.0635 117.72 81.8487 117.856 82.8197C118.165 85.0191 119.108 85.5219 120.234 85.2314M129.579 67.6606C129.565 67.6899 129.551 67.7196 129.536 67.7496M125.54 81.1762C125.52 81.1966 125.5 81.2169 125.48 81.2371M125.54 81.1762C125.526 81.1762 125.506 81.1841 125.481 81.1992M125.54 81.1762L125.48 81.2371M129.536 67.7496C128.179 70.5341 125.968 75.9781 125.521 80.5229C125.498 80.7588 125.485 80.9841 125.481 81.1992M129.536 67.7496L130.03 67.2012C130.932 65.8231 131.834 65.3638 132.285 65.3638C133.728 65.3638 132.886 67.2012 132.285 68.12C129.038 72.5299 127.55 80.0635 127.776 82.8197C127.933 84.7447 128.439 85.4559 129.082 85.4621M125.48 81.2371C125.433 84.3249 127.247 85.2906 128.227 85.5759C128.499 85.5759 128.786 85.5424 129.082 85.4621M125.48 81.2371C125.48 81.2245 125.48 81.2119 125.481 81.1992M125.48 81.2371C123.055 83.6983 121.434 84.7692 120.234 85.2314M129.082 85.4621C130.279 85.4735 131.953 83.036 132.736 81.4416C131.583 84.0837 130.258 85.1429 129.082 85.4621ZM125.481 81.1992C124.974 81.5021 122.298 84.6989 120.234 85.2314" stroke="#2A7A00"/>
<path d="M177.579 67.6606C177.279 65.8231 175.054 62.8832 170.365 65.8231C165.676 68.7631 163.903 73.7855 163.602 75.9292C162.851 79.1448 162.34 85.5759 166.307 85.5759C166.841 85.5759 167.447 85.5347 168.234 85.2314C167.108 85.5219 166.165 85.0191 165.856 82.8197C165.72 81.8487 165.856 80.0635 166.307 77.7667C166.608 76.2354 167.48 72.7136 168.562 70.8762C169.914 68.5793 171.267 66.7419 172.62 65.8231C173.972 64.9044 176.227 64.445 177.579 67.6606Z" fill="#2A7A00"/>
<path d="M175.776 82.8197C175.55 80.0635 177.038 72.5299 180.285 68.12C180.886 67.2012 181.728 65.3638 180.285 65.3638C179.834 65.3638 178.932 65.8231 178.03 67.2012L177.536 67.7496C176.179 70.5341 173.968 75.9781 173.521 80.5229C173.498 80.7588 173.485 80.9841 173.481 81.1992C173.506 81.1841 173.526 81.1762 173.54 81.1762L173.48 81.2371C173.433 84.3249 175.247 85.2906 176.227 85.5759C176.499 85.5759 176.786 85.5424 177.082 85.4621C176.439 85.4559 175.933 84.7447 175.776 82.8197Z" fill="#2A7A00"/>
<path d="M177.579 67.6606C177.279 65.8231 175.054 62.8832 170.365 65.8231C165.676 68.7631 163.903 73.7855 163.602 75.9292C162.851 79.1448 162.34 85.5759 166.307 85.5759C166.841 85.5759 167.447 85.5346 168.234 85.2314M177.579 67.6606C176.227 64.445 173.972 64.9044 172.62 65.8231C171.267 66.7419 169.914 68.5793 168.562 70.8762C167.48 72.7136 166.608 76.2354 166.307 77.7667C165.856 80.0635 165.72 81.8487 165.856 82.8197C166.165 85.0191 167.108 85.5219 168.234 85.2314M177.579 67.6606C177.565 67.6899 177.551 67.7196 177.536 67.7496M173.54 81.1762C173.52 81.1966 173.5 81.2169 173.48 81.2371M173.54 81.1762C173.526 81.1762 173.506 81.1841 173.481 81.1992M173.54 81.1762L173.48 81.2371M177.536 67.7496C176.179 70.5341 173.968 75.9781 173.521 80.5229C173.498 80.7588 173.485 80.9841 173.481 81.1992M177.536 67.7496L178.03 67.2012C178.932 65.8231 179.834 65.3638 180.285 65.3638C181.728 65.3638 180.886 67.2012 180.285 68.12C177.038 72.5299 175.55 80.0635 175.776 82.8197C175.933 84.7447 176.439 85.4559 177.082 85.4621M173.48 81.2371C173.433 84.3249 175.247 85.2906 176.227 85.5759C176.499 85.5759 176.786 85.5424 177.082 85.4621M173.48 81.2371C173.48 81.2245 173.48 81.2119 173.481 81.1992M173.48 81.2371C171.055 83.6983 169.434 84.7692 168.234 85.2314M177.082 85.4621C178.279 85.4735 179.953 83.036 180.736 81.4416C179.583 84.0837 178.258 85.1429 177.082 85.4621ZM173.481 81.1992C172.974 81.5021 170.298 84.6989 168.234 85.2314" stroke="#2A7A00"/>
<path d="M31.0814 30.0759C28.248 30.9092 22.8814 30.3759 24.0814 21.5759C24.5814 17.5759 28.0814 9.07589 37.5814 4.07589C38.4069 3.64137 43.0814 2.07589 50.0814 3.07589C47.5814 5.5759 43.5814 5.64347 34.0814 28.0759C32.5814 31.0759 24.955 48.5649 18.5814 55.5759C13.5814 61.0759 11.0814 62.0759 8.58138 62.5759C5.24805 63.4092 -0.0852214 62.5759 2.58138 54.5759C4.08136 50.0759 10.5814 40.0759 20.4884 38.2737C20.4884 38.2737 23.5814 37.5759 29.0814 38.0759C23.5814 37.5759 17.1669 37.6637 11.0814 41.5759C8.58138 43.0759 0.0813665 50.0759 1.08137 60.0759C1.33137 62.5759 5.08136 67.5759 16.0814 60.5759C18.5814 58.7426 25.0814 53.5759 30.5814 43.0759C34.5814 34.5759 38.3985 25.0025 40.0814 21.0759C41.5814 17.5759 42.5814 14.3259 46.0814 9.07589C47.0814 7.57589 50.5814 3.57589 53.0814 2.07589C49.748 1.07589 41.4814 -0.124119 35.0814 3.07589C34.5814 3.5759 27.0814 6.0759 23.5814 14.5759C22.0814 18.0759 21.0814 23.0759 24.0814 28.5759C25.248 29.9092 28.6814 32.8759 31.0814 30.0759Z" fill="#2A7A00"/>
<path d="M29.0814 38.0759C23.5814 37.5759 20.4884 38.2737 20.4884 38.2737C10.5814 40.0759 4.08136 50.0759 2.58138 54.5759C-0.0852214 62.5759 5.24805 63.4092 8.58138 62.5759C11.0814 62.0759 13.5814 61.0759 18.5814 55.5759C24.955 48.5649 32.5814 31.0759 34.0814 28.0759C43.5814 5.64347 47.5814 5.5759 50.0814 3.07589C43.0814 2.07589 38.4069 3.64137 37.5814 4.07589C28.0814 9.07589 24.5814 17.5759 24.0814 21.5759C22.8814 30.3759 28.248 30.9092 31.0814 30.0759C28.6814 32.8759 25.248 29.9092 24.0814 28.5759C21.0814 23.0759 22.0814 18.0759 23.5814 14.5759C27.0814 6.0759 34.5814 3.5759 35.0814 3.07589C41.4814 -0.124119 49.748 1.07589 53.0814 2.07589C50.5814 3.57589 47.0814 7.57589 46.0814 9.07589C42.5814 14.3259 41.5814 17.5759 40.0814 21.0759C38.3985 25.0025 34.5814 34.5759 30.5814 43.0759C25.0814 53.5759 18.5814 58.7426 16.0814 60.5759C5.08136 67.5759 1.33137 62.5759 1.08137 60.0759C0.0813665 50.0759 8.58138 43.0759 11.0814 41.5759C17.1669 37.6637 23.5814 37.5759 29.0814 38.0759ZM29.0814 38.0759C36.0814 38.2737 39.0814 44.0759 37.5814 47.0759L37.818 46.4539" stroke="#2A7A00"/>
<path d="M108.737 21.6897C110.744 21.1954 112.876 22.2494 112.581 26.0759C112.504 27.0759 110.581 31.5759 110.081 32.5759C108.581 36.0759 107.581 38.0759 107.581 40.0759C107.581 42.0759 108.081 45.5759 113.581 39.0759C111.388 42.1465 107.081 45.5759 105.081 41.0759C104.581 39.5759 105.081 37.7635 105.582 36.5759C106.915 33.4093 109.451 26.8365 110.082 25.5759C110.748 24.2426 111.737 21.0654 108.737 21.6897Z" fill="#2A7A00"/>
<path d="M113.581 18.0759C113.581 13.0759 115.581 10.5759 119.581 9.5759C119.581 14.5759 117.581 18.0759 113.581 18.0759Z" fill="#2A7A00"/>
<path d="M105.582 24.576C106.582 21.0759 113.081 19.5759 112.581 26.0759M112.581 26.0759C112.504 27.0759 110.581 31.5759 110.081 32.5759C108.581 36.0759 107.581 38.0759 107.581 40.0759C107.581 42.0759 108.081 45.5759 113.581 39.0759C111.388 42.1465 107.081 45.5759 105.081 41.0759C104.581 39.5759 105.081 37.7635 105.582 36.5759C106.915 33.4093 109.451 26.8365 110.082 25.5759C110.748 24.2426 111.737 21.0654 108.737 21.6897C110.744 21.1954 112.876 22.2494 112.581 26.0759ZM113.581 18.0759C113.581 13.0759 115.581 10.5759 119.581 9.5759C119.581 14.5759 117.581 18.0759 113.581 18.0759Z" stroke="#2A7A00"/>
<path d="M156.758 65.09C158.669 64.6202 160.698 65.622 160.418 69.2591C160.345 70.2096 158.514 74.4868 158.038 75.4373C156.61 78.7641 155.658 80.6651 155.658 82.5661C155.658 84.4671 156.134 87.7938 161.37 81.6156C159.282 84.5342 155.182 87.7939 153.278 83.5166C152.803 82.0909 153.279 80.3682 153.755 79.2394C155.024 76.2295 157.438 69.9821 158.038 68.7839C158.673 67.5165 159.614 64.4967 156.758 65.09Z" fill="#2A7A00"/>
<path d="M158.581 61.6551C158.038 56.5759 161.581 52.0759 166.081 51.5759C166.081 57.0759 164.081 61.0759 158.581 61.6551Z" fill="#2A7A00"/>
<path d="M153.755 67.8334C154.707 64.5066 160.894 63.0808 160.418 69.2591M160.418 69.2591C160.345 70.2096 158.514 74.4868 158.038 75.4373C156.61 78.7641 155.658 80.6651 155.658 82.5661C155.658 84.4671 156.134 87.7938 161.37 81.6156C159.282 84.5342 155.182 87.7939 153.278 83.5166C152.803 82.0909 153.279 80.3682 153.755 79.2394C155.024 76.2295 157.438 69.9821 158.038 68.7839C158.673 67.5165 159.614 64.4967 156.758 65.09C158.669 64.6202 160.698 65.622 160.418 69.2591ZM158.581 61.6551C158.038 56.5759 161.581 52.0759 166.081 51.5759C166.081 57.0759 164.081 61.0759 158.581 61.6551Z" stroke="#2A7A00"/>
<path d="M197.081 71.7909C196.06 72.6583 193.989 72.6151 193.581 70.5759C193.251 69.2542 195.081 68.0759 196.581 70.0759C196.748 70.2426 197.081 70.9909 197.081 71.7909Z" fill="#2A7A00"/>
<path d="M189.202 84.9354C190.987 84.6468 193.236 83.7657 194.581 81.076C195.235 79.7693 195.581 76.5759 192.081 74.076C190.581 73.2426 188.581 71.0759 188.581 68.5759C188.581 67.5335 189.059 66.3937 190.194 65.6883C188.581 66.5759 185.581 69.0759 188.081 73.5759C189.192 75.5759 192.681 78.0595 193.081 80.0759C193.328 81.3182 193.081 82.5759 190.081 84.5759C189.872 84.7016 189.572 84.8336 189.202 84.9354Z" fill="#2A7A00"/>
<path d="M185.581 77.076C182.581 78.576 181.081 84.5759 187.081 85.0759C187.573 85.0759 188.332 85.0759 189.202 84.9354M188.581 68.5759C188.581 71.0759 190.581 73.2426 192.081 74.076C195.581 76.5759 195.235 79.7693 194.581 81.076C193.236 83.7657 190.987 84.6468 189.202 84.9354M188.581 68.5759C188.581 66.7286 190.081 64.5759 194.081 65.0759C196.081 65.4257 198.915 67.0759 197.581 71.0759C197.081 72.5759 194.081 73.0759 193.581 70.5759M188.581 68.5759C188.581 67.5335 189.059 66.3937 190.194 65.6883C188.581 66.5759 185.581 69.0759 188.081 73.5759C189.192 75.5759 192.681 78.0595 193.081 80.0759C193.328 81.3182 193.081 82.5759 190.081 84.5759C189.872 84.7016 189.572 84.8336 189.202 84.9354M193.581 70.5759C193.251 69.2542 195.081 68.0759 196.581 70.0759C196.748 70.2426 197.081 70.9909 197.081 71.7909C196.06 72.6583 193.989 72.6151 193.581 70.5759ZM183.399 79.4782C182.899 80.3116 182.581 82.4759 184.581 84.0759C186.378 85.2737 188.1 85.2385 189.202 84.9354" stroke="#2A7A00"/>
<path d="M57.5814 51.0759C57.5814 51.0759 57.5814 65.0759 57.5814 64.5759" stroke="#1E0000"/>
<path d="M69.0813 59.5759C69.0813 57.5759 67.5813 55.5759 65.0813 55.5759C62.5814 55.5759 61.0814 57.5759 61.0814 60.0759C61.0814 62.0759 62.5814 64.0759 65.0813 64.0759C67.0814 64.0759 68.5814 63.5759 69.0814 60.0759" stroke="#1E0000"/>
<path d="M78.0814 57.0759C78.0813 55.0759 73.0813 54.8026 73.0814 57.5759C73.0814 60.5759 78.0814 59.5759 78.0814 62.0759C78.0814 65.0759 72.5814 64.5759 72.5814 62.0759" stroke="#1E0000"/>
<circle cx="87.0814" cy="100.576" r="5.5" stroke="#1E0000"/>
</svg>
